<svg width="24" height="24" enable-background="new 0 0 800 800" version="1.1" viewBox="0 0 24 24" xml:space="preserve" xmlns="http://www.w3.org/2000/svg">
<linearGradient id="SVGID_1_" x1="400.05" x2="400.05" y1="798.77" y2="-1.2283" gradientTransform="matrix(.024997 0 0 -.025 2.9995 21.969)" gradientUnits="userSpaceOnUse">
	<stop stop-color="#18BFFB" offset="0"/>
	<stop stop-color="#2072F3" offset="1"/>
</linearGradient>
<path d="m18.958 1.9999h-11.918c-2.2323 0-4.0395 1.8075-4.0395 4.04v11.923c0 2.23 1.8073 4.0375 4.0395 4.0375h11.921c2.2298 0 4.0395-1.8075 4.0395-4.04v-11.92c-0.0025-2.2325-1.8098-4.04-4.042-4.04z" fill="url(#SVGID_1_)" stroke-width=".024998"/>
<path d="m12.914 6.595 0.40495-0.70001c0.24997-0.4375 0.80741-0.585 1.2448-0.335 0.43745 0.25 0.58493 0.80751 0.33496 1.245l-3.902 6.7551h2.8222c0.91492 0 1.4273 1.075 1.0298 1.82h-8.2741c-0.50494 0-0.90992-0.405-0.90992-0.91001s0.40495-0.91001 0.90992-0.91001h2.3198l2.9697-5.1475-0.92742-1.61c-0.24997-0.4375-0.10248-0.99001 0.33496-1.245 0.43744-0.25 0.98992-0.1025 1.2448 0.335zm-3.5096 9.7226-0.87492 1.5175c-0.24997 0.4375-0.80741 0.58501-1.2448 0.335-0.43744-0.25-0.58493-0.80751-0.33496-1.245l0.64992-1.125c0.73491-0.2275 1.3323-0.0525 1.8048 0.5175zm7.5341-2.7525h2.3672c0.50494 0 0.90992 0.405 0.90992 0.91001 0 0.505-0.40495 0.91001-0.90992 0.91001h-1.3148l0.88742 1.54c0.24997 0.4375 0.10248 0.99001-0.33496 1.245-0.43745 0.25-0.98992 0.1025-1.2448-0.335-1.4948-2.5925-2.6172-4.5325-3.3621-5.825-0.76242-1.315-0.21748-2.635 0.31996-3.0825 0.59743 1.025 1.4898 2.5725 2.6822 4.6375z" fill="#fff" stroke-width=".024998"/>
</svg>
