<svg width="24" height="24" enable-background="new 0 0 800 800" version="1.1" viewBox="0 0 24 24" xml:space="preserve" xmlns="http://www.w3.org/2000/svg">

<path d="m18.958 2h-11.918c-2.2323 0-4.0395 1.8075-4.0395 4.04v11.922c0 2.23 1.8073 4.0375 4.0395 4.0375h11.921c2.2298 0 4.0395-1.8075 4.0395-4.04v-11.92c-0.0025-2.2325-1.8098-4.04-4.042-4.04z" fill="#616161" stroke-width=".83334"/>
<path d="m12.974 6.7312 0.40495-0.7c0.24997-0.4375 0.80741-0.585 1.2448-0.335 0.43745 0.25 0.58493 0.8075 0.33496 1.245l-3.902 6.755h2.8222c0.91492 0 1.4273 1.075 1.0298 1.82h-8.2741c-0.50494 0-0.90992-0.405-0.90992-0.91s0.40495-0.91 0.90992-0.91h2.3198l2.9697-5.1475-0.92742-1.61c-0.24997-0.4375-0.10248-0.99 0.33496-1.245 0.43744-0.25 0.98992-0.1025 1.2448 0.335zm-3.5096 9.7225-0.87492 1.5175c-0.24997 0.4375-0.80741 0.585-1.2448 0.335s-0.58493-0.8075-0.33496-1.245l0.64992-1.125c0.73491-0.2275 1.3323-0.0525 1.8048 0.5175zm7.5341-2.7525h2.3672c0.50494 0 0.90992 0.405 0.90992 0.91s-0.40495 0.91-0.90992 0.91h-1.3148l0.88742 1.54c0.24997 0.4375 0.10248 0.99-0.33496 1.245-0.43745 0.25-0.98992 0.1025-1.2448-0.335-1.4948-2.5925-2.6172-4.5325-3.3621-5.825-0.76242-1.315-0.21748-2.635 0.31996-3.0825 0.59743 1.025 1.4898 2.5725 2.6822 4.6375z" fill="#fff" stroke-width=".024998"/>
</svg>
