<svg width="24" height="24" version="1.1" viewBox="0 0 19.2 19.2" xmlns="http://www.w3.org/2000/svg">
 <title>Huawei AppGallery</title>
 <g transform="matrix(.83333 0 0 .83333 2.4 1.6)">
  <rect width="19.2" height="19.2" ry="4.1353" fill="#e14459"/>
  <path d="m4.6803 1.255a0.54623 0.54427 0 0 0-0.5455 0.5448 0.54623 0.54427 0 0 0 0.54648 0.54375 0.54623 0.54427 0 0 0 0.54599-0.54424v-0.00109a0.54623 0.54427 0 0 0-0.54697-0.54326zm9.7703 0a0.54623 0.54427 0 0 0-0.5455 0.5448 0.54623 0.54427 0 0 0 0.54655 0.54375 0.54623 0.54427 0 0 0 0.54592-0.54424v-0.00109a0.54623 0.54427 0 0 0-0.54697-0.54326z" fill="#c73148"/>
  <path d="m4.6587 1.7243c-0.18983 0.010187-0.18021 0.28628-0.18021 0.28628 1.0202 1.9867 2.8986 2.9611 5.0648 2.9612 2.1633-0.00316 4.0604-0.98835 5.0792-2.9724 0 0 0.04039-0.3736-0.35722-0.2441-1.0448 1.7318-2.8002 2.7564-4.7207 2.7596-1.9242 4.848e-4 -3.6733-1.0133-4.7201-2.7484-0.067611-0.032635-0.12198-0.044526-0.16578-0.042178zm6.9044 7.7222-0.58039 1.7285-0.565-1.7273h-0.55154l0.89047 2.5126h0.42936l0.58167-1.6506 0.58104 1.6506h0.43289l0.88856-2.5126h-0.53775l-0.56597 1.7273-0.58039-1.7285zm-3.0828 6.303e-4 -1.1262 2.512h0.52941l0.21741-0.4863 0.015389-0.03674h1.1701l0.22927 0.52304h0.54383l-1.1159-2.4973-0.00995-0.014696zm8.1556 3.152e-4v2.5101h0.51177v-2.51zm-14.674 3.151e-4v2.5136h0.51882v-1.0208h1.171v1.0208h0.51883v-2.5136h-0.51883v1.0141h-1.171v-1.0141zm4.6095 6.303e-4v1.4387c0 0.4087-0.20626 0.62688-0.58103 0.62688-0.37687 0-0.58456-0.22428-0.58456-0.64413v-1.4199h-0.5185v1.4371c0 0.70719 0.39981 1.1125 1.0963 1.1125 0.70314 0 1.1063-0.41314 1.1063-1.1333v-1.418zm7.5166 9.455e-4v2.5101h1.9304v-0.45753h-1.4189v-0.62241h0.94338v-0.45782h-0.94338v-0.51441h1.3695v-0.45786zm-5.3884 0.6339 0.37004 0.84158 0.025009 0.05783h-0.78433l0.024692-0.05783z" fill="#fff" stroke-width=".26152"/>
 </g>
</svg>
