<svg width="24" height="24" version="1.1" viewBox="0 0 24 24" xml:space="preserve" xmlns="http://www.w3.org/2000/svg">
<path d="m22.893 10.091-13.648-7.8014c-0.33165-0.1896-0.709-0.28979-1.0911-0.28979-0.38703 0-0.76855 0.10267-1.1033 0.2969-0.67557 0.39192-1.0952 1.1206-1.0952 1.9017v15.603c0 0.781 0.41966 1.5096 1.0951 1.9016 0.33476 0.19441 0.71638 0.29708 1.1034 0.29708 0.38188 0 0.75922-0.10027 1.0911-0.28987l13.648-7.8015c0.68322-0.39059 1.1076-1.1219 1.1076-1.9088 0-0.78686-0.42419-1.5182-1.1073-1.9088zm-5.9142-1.8447-1.8739 2.6102-4.4823-6.2435zm-8.911 12.413c-0.12187-0.01182-0.24143-0.04738-0.34819-0.10934-0.26578-0.15423-0.43094-0.44099-0.43094-0.74829v-15.603c0-0.3073 0.16516-0.59406 0.43103-0.74829 0.1064-0.061779 0.22498-0.09858 0.34685-0.11111l6.2176 8.6609zm2.5547-1.2722 4.4823-6.2436 1.8739 2.6102zm11.609-6.6358-4.0886 2.3371-2.217-3.0882 2.217-3.0882 4.0886 2.3371c0.26881 0.15369 0.43583 0.44143 0.43583 0.75104s-0.16694 0.59744-0.43583 0.75104z" fill="#616161" stroke-width=".088891"/>















</svg>
